<svg width="281" height="39" viewBox="0 0 281 39" fill="none" xmlns="http://www.w3.org/2000/svg">
  <g clip-path="url(#clip0)">
    <g clip-path="url(#clip1)">
      <path
        fill-rule="evenodd"
        clip-rule="evenodd"
        d="M195.909 8.70426C191.336 8.70426 187.134 12.8504 187.134 19.4992C187.134 26.3356 190.443 30.2575 195.576 30.2575C197.878 30.2575 200.001 29.0259 201.525 27.4557H201.671L202.006 29.7722H205.5V0H201.225V7.62374L201.412 11.0192C199.738 9.60005 198.251 8.70426 195.909 8.70426ZM201.225 14.1582V24.2069C199.738 25.9251 198.288 26.7095 196.577 26.7095C193.38 26.7095 191.558 24.1321 191.558 19.4625C191.558 15.0173 193.863 12.2904 196.726 12.2904C198.251 12.2904 199.7 12.7756 201.225 14.1582ZM177.32 2.80176C177.32 1.26968 178.398 0.261002 179.959 0.261002C181.521 0.261002 182.637 1.26968 182.637 2.80176C182.637 4.37049 181.522 5.37917 179.959 5.37917C178.397 5.37917 177.32 4.37049 177.32 2.80176ZM177.841 9.22623H182.116V29.7722H177.841V9.22623ZM142.176 2.19939H146.607L149.177 16.5672C149.566 18.9135 149.955 21.2854 150.344 23.6608L150.344 23.6609L150.345 23.6628L150.629 25.3961H150.775C151.37 22.4419 152.003 19.4848 152.636 16.5672L156.173 2.19939H160.01L163.547 16.5672C163.951 18.406 164.34 20.2752 164.733 22.165C164.955 23.236 165.179 24.3136 165.408 25.3961H165.595C165.884 23.4636 166.187 21.5464 166.487 19.6547V19.6547L166.487 19.6546L166.487 19.6545C166.651 18.6171 166.814 17.5875 166.973 16.5672L169.579 2.19939H173.713L168.314 29.7724H162.988L159.305 14.4707C158.82 12.3008 158.41 10.2424 158.038 8.14737H157.892C157.624 9.51802 157.34 10.873 157.051 12.2537C156.898 12.9835 156.744 13.7204 156.589 14.4707L152.978 29.7724H147.764L142.176 2.19939ZM210.444 33.5827C210.444 31.8645 211.522 30.2576 213.419 29.1009V28.9132C212.377 28.2784 211.56 27.1949 211.56 25.5148C211.56 23.9021 212.713 22.5254 213.864 21.7029V21.5563C213.025 20.9096 212.344 20.0784 211.873 19.1265C211.403 18.1746 211.155 17.1271 211.15 16.0643C211.15 11.4328 214.832 8.70589 219.07 8.70589C220.085 8.70147 221.091 8.8782 222.044 9.22782H229.293V12.4401H225.39C226.171 13.2611 226.728 14.6392 226.728 16.2123C226.728 20.6957 223.346 23.2731 219.07 23.2731C218.083 23.2636 217.108 23.0474 216.208 22.6383C215.538 23.235 215.091 23.795 215.091 24.8037C215.091 26.0367 215.91 26.8211 218.512 26.8211H222.267C227.1 26.8211 229.629 28.315 229.629 31.8278C229.629 35.7863 225.464 39 218.922 39C214.013 38.9985 210.444 37.1688 210.444 33.5827ZM225.502 32.4993C225.502 30.781 224.163 30.2576 221.672 30.2576H218.582C217.657 30.2582 216.735 30.1599 215.831 29.9644C214.604 30.8602 214.08 31.907 214.08 32.9523C214.08 34.9697 216.162 36.1646 219.546 36.1646C223.122 36.1602 225.502 34.4052 225.502 32.4993ZM222.936 16.0628C222.936 13.3358 221.226 11.7305 219.07 11.7305C216.915 11.7305 215.204 13.2992 215.204 16.0628C215.204 18.8264 216.955 20.508 219.07 20.508C221.186 20.508 222.936 18.8279 222.936 16.0628ZM240.669 8.7036C235.91 8.7036 231.337 12.8497 231.337 19.4985C231.337 26.2983 235.762 30.2568 241.296 30.2509C243.764 30.236 246.172 29.482 248.211 28.0855L246.724 25.3585C245.236 26.3291 243.675 26.8892 241.854 26.8892C238.321 26.8892 235.868 24.5361 235.532 20.6142H248.811C248.958 19.8905 249.033 19.1538 249.034 18.4151C249.034 12.6254 246.097 8.7036 240.669 8.7036ZM240.743 12.0595C243.711 12.0595 245.316 14.1121 245.316 17.6307H235.502C235.91 14.0388 238.178 12.0595 240.743 12.0595ZM254.054 23.0487V12.6643H251.079V9.45061L254.277 9.22629L254.76 3.54954H258.329V9.22629H263.645V12.6643H258.329V23.0854C258.329 25.5514 259.184 26.821 261.303 26.821C262.056 26.7965 262.798 26.6319 263.492 26.3357L264.274 29.5113C263.121 29.8852 261.745 30.2576 260.258 30.2576C255.652 30.2576 254.054 27.3811 254.054 23.0487ZM267.549 24.6504L265.542 27.4155C267.549 29.0619 270.412 30.2568 273.23 30.2539C278.286 30.2539 281 27.4521 281 24.0156C281 20.1304 277.841 18.8608 274.978 17.7773C274.893 17.7458 274.808 17.7145 274.723 17.6834C272.603 16.9034 270.746 16.2202 270.746 14.5284C270.746 13.1078 271.787 11.9877 274.056 11.9877C275.728 11.9877 277.178 12.7339 278.591 13.7807L280.599 11.1315C278.963 9.8237 276.695 8.7036 273.981 8.7036C269.445 8.7036 266.694 11.2781 266.694 14.7146C266.694 18.1878 269.706 19.6451 272.456 20.6919C272.545 20.7266 272.634 20.7613 272.723 20.796C274.832 21.6191 276.955 22.4476 276.955 24.2399C276.955 25.8086 275.802 27.005 273.349 27.005C271.155 27.005 269.37 26.0711 267.549 24.6504Z"
        fill="var(--color-typo-primary)"
      />
      <path
        fill-rule="evenodd"
        clip-rule="evenodd"
        d="M20.5522 21.566C19.2842 22.5776 17.6558 23.189 15.1752 23.0174C10.9437 22.7242 8.46311 19.5736 8.46311 15.6869C8.46311 11.8003 11.0896 8.50301 15.1752 8.3564C17.6558 8.26697 19.2142 8.78597 20.4778 9.75067L24.524 3.94343C21.9778 1.91874 18.5386 1.02588 14.5916 1.02588C6.12846 1.02588 0 7.18352 0 15.6869C0 24.1903 6.12846 30.348 14.5916 30.348C18.613 30.348 22.1077 29.4199 24.667 27.3146L20.5522 21.566ZM131.762 15.6874C131.762 11.5823 128.26 8.06362 121.548 8.06362C118.056 8.06362 115.61 8.69258 114.207 9.19839L115.4 14.6772C122.861 12.4619 125.342 14.9543 125.05 18.0331C125.05 18.0331 122.131 16.567 118.921 16.567C114.252 16.567 111.625 19.7925 111.625 23.3844C111.625 28.0026 114.544 30.3484 118.921 30.3484C121.492 30.3484 123.75 29.1858 125.05 27.4294V29.762H131.762V15.6874ZM121.256 25.217C119.505 25.217 118.629 24.3374 118.629 22.8713C118.629 21.4052 119.797 20.5255 121.256 20.5255C122.89 20.5255 123.762 20.7809 124.777 21.0783C124.849 21.0996 124.923 21.1211 124.997 21.1427C124.997 23.1645 123.882 25.217 121.256 25.217ZM25.4023 19.206C25.4023 12.7434 30.3518 8.06362 36.7838 8.06362C43.2157 8.06362 48.1754 12.7434 48.1652 19.206C48.155 25.6686 43.2157 30.3484 36.7838 30.3484C30.3518 30.3484 25.4023 25.6686 25.4023 19.206ZM32.5391 19.206C32.5391 21.9916 34.2901 23.8975 36.7706 23.8975C39.2512 23.8975 41.0022 21.845 41.0022 19.206C41.0022 16.567 39.2512 14.5145 36.7706 14.5145C34.2901 14.5145 32.5391 16.567 32.5391 19.206ZM63.4733 8.06362C61.0234 8.06362 58.7194 9.41391 57.1989 11.2319V8.65007H50.4868V29.762H57.1989V17.4467C57.1989 16.6301 57.5218 15.847 58.0964 15.2696C58.6711 14.6922 59.4505 14.3679 60.2632 14.3679C61.0759 14.3679 61.8553 14.6922 62.4299 15.2696C63.0046 15.847 63.3274 16.6301 63.3274 17.4467V29.762H70.0395V14.8077C70.0395 10.9958 67.559 8.06362 63.4733 8.06362ZM101.557 20.7165C101.557 22.725 102.871 23.8979 105.351 23.8979C106.352 23.8687 107.335 23.6321 108.24 23.203L110.088 28.6114C108.704 29.3064 106.119 30.3488 103.084 30.3488C97.8628 30.3488 94.9576 27.8124 94.8452 24.1911V2.93262H101.557V8.65043H107.978L107.686 14.5148H101.557V20.7165ZM111.143 27.8753L111.129 28.0387L111.188 28.0022L111.143 27.8753ZM74.7087 23.3111L72.374 27.4162C75.2588 29.4424 78.6601 30.3484 82.5764 30.3484C88.0512 30.3484 91.489 27.6537 91.489 23.0179V22.946C91.489 18.5829 88.4247 17.0978 83.3177 15.7783C81.2836 15.2329 80.8371 14.5145 80.8371 13.928C80.8619 13.6082 80.9919 13.3058 81.2067 13.0684C81.4215 12.8311 81.7089 12.6724 82.0234 12.6173C83.7554 12.3153 86.5716 13.2683 88.7166 14.5145L91.1227 10.5179C88.6816 8.95941 85.3897 8.06362 82.0614 8.06362C76.8084 8.06362 73.2583 10.6733 73.2583 15.3487V15.4264C73.2583 19.8291 76.3984 21.2762 81.5054 22.5956C83.541 23.141 83.9014 23.8975 83.9014 24.3374C83.9014 24.7772 83.4957 25.3871 82.6903 25.5015C80.5453 25.8035 77.1498 24.9092 74.7087 23.3111Z"
        fill="var(--color-bg-link)"
      />
      <path
        fill-rule="evenodd"
        clip-rule="evenodd"
        d="M20.5522 21.566C19.2842 22.5776 17.6558 23.189 15.1752 23.0174C10.9437 22.7242 8.46311 19.5736 8.46311 15.6869C8.46311 11.8003 11.0896 8.50301 15.1752 8.3564C17.6558 8.26697 19.2142 8.78597 20.4778 9.75067L24.524 3.94343C21.9778 1.91874 18.5386 1.02588 14.5916 1.02588C6.12846 1.02588 0 7.18352 0 15.6869C0 24.1903 6.12846 30.348 14.5916 30.348C18.613 30.348 22.1077 29.4199 24.667 27.3146L20.5522 21.566ZM131.762 15.6874C131.762 11.5823 128.26 8.06362 121.548 8.06362C118.056 8.06362 115.61 8.69258 114.207 9.19839L115.4 14.6772C122.861 12.4619 125.342 14.9543 125.05 18.0331C125.05 18.0331 122.131 16.567 118.921 16.567C114.252 16.567 111.625 19.7925 111.625 23.3844C111.625 28.0026 114.544 30.3484 118.921 30.3484C121.492 30.3484 123.75 29.1858 125.05 27.4294V29.762H131.762V15.6874ZM121.256 25.217C119.505 25.217 118.629 24.3374 118.629 22.8713C118.629 21.4052 119.797 20.5255 121.256 20.5255C122.89 20.5255 123.762 20.7809 124.777 21.0783C124.849 21.0996 124.923 21.1211 124.997 21.1427C124.997 23.1645 123.882 25.217 121.256 25.217ZM25.4023 19.206C25.4023 12.7434 30.3518 8.06362 36.7838 8.06362C43.2157 8.06362 48.1754 12.7434 48.1652 19.206C48.155 25.6686 43.2157 30.3484 36.7838 30.3484C30.3518 30.3484 25.4023 25.6686 25.4023 19.206ZM32.5391 19.206C32.5391 21.9916 34.2901 23.8975 36.7706 23.8975C39.2512 23.8975 41.0022 21.845 41.0022 19.206C41.0022 16.567 39.2512 14.5145 36.7706 14.5145C34.2901 14.5145 32.5391 16.567 32.5391 19.206ZM63.4733 8.06362C61.0234 8.06362 58.7194 9.41391 57.1989 11.2319V8.65007H50.4868V29.762H57.1989V17.4467C57.1989 16.6301 57.5218 15.847 58.0964 15.2696C58.6711 14.6922 59.4505 14.3679 60.2632 14.3679C61.0759 14.3679 61.8553 14.6922 62.4299 15.2696C63.0046 15.847 63.3274 16.6301 63.3274 17.4467V29.762H70.0395V14.8077C70.0395 10.9958 67.559 8.06362 63.4733 8.06362ZM101.557 20.7165C101.557 22.725 102.871 23.8979 105.351 23.8979C106.352 23.8687 107.335 23.6321 108.24 23.203L110.088 28.6114C108.704 29.3064 106.119 30.3488 103.084 30.3488C97.8628 30.3488 94.9576 27.8124 94.8452 24.1911V2.93262H101.557V8.65043H107.978L107.686 14.5148H101.557V20.7165ZM111.143 27.8753L111.129 28.0387L111.188 28.0022L111.143 27.8753ZM74.7087 23.3111L72.374 27.4162C75.2588 29.4424 78.6601 30.3484 82.5764 30.3484C88.0512 30.3484 91.489 27.6537 91.489 23.0179V22.946C91.489 18.5829 88.4247 17.0978 83.3177 15.7783C81.2836 15.2329 80.8371 14.5145 80.8371 13.928C80.8619 13.6082 80.9919 13.3058 81.2067 13.0684C81.4215 12.8311 81.7089 12.6724 82.0234 12.6173C83.7554 12.3153 86.5716 13.2683 88.7166 14.5145L91.1227 10.5179C88.6816 8.95941 85.3897 8.06362 82.0614 8.06362C76.8084 8.06362 73.2583 10.6733 73.2583 15.3487V15.4264C73.2583 19.8291 76.3984 21.2762 81.5054 22.5956C83.541 23.141 83.9014 23.8975 83.9014 24.3374C83.9014 24.7772 83.4957 25.3871 82.6903 25.5015C80.5453 25.8035 77.1498 24.9092 74.7087 23.3111Z"
        fill="url(#paint0_linear)"
        style="mix-blend-mode: overlay"
      />
    </g>
  </g>
  <defs>
    <clipPath id="clip0">
      <rect width="281" height="39" fill="white" />
    </clipPath>
    <clipPath id="clip1">
      <rect width="281" height="39" fill="white" />
    </clipPath>
    <linearGradient
      id="paint0_linear"
      x1="242"
      y1="-112"
      x2="71.5"
      y2="180"
      gradientUnits="userSpaceOnUse"
    >
      <stop stop-color="#fff" stop-opacity=".5" />
      <stop offset="1" stop-color="#fff" stop-opacity="0" />
    </linearGradient>
  </defs>
</svg>
