<svg width="189" height="30" viewBox="0 0 189 30" fill="none" xmlns="http://www.w3.org/2000/svg">
  <path
    d="M143.436 1.9585H147.722V14.8547H147.833L158.179 1.9585H162.945L154.522 12.4897L164.351 29.1911H159.583L151.897 15.852L147.722 20.9873V29.1897H143.436V1.9585Z"
    fill="black"
  />
  <path
    d="M167.047 2.51267C167.047 0.997251 168.118 0 169.67 0C171.222 0 172.33 0.997251 172.33 2.51267C172.33 4.06427 171.222 5.06296 169.67 5.06296C168.118 5.06296 167.047 4.06427 167.047 2.51267ZM167.564 8.86815H171.814V29.1909H167.564V8.86815Z"
    fill="black"
  />
  <path
    d="M178.833 22.5402V12.2638H175.876V9.07951L179.061 8.85806L179.541 3.24219H183.089V8.85806H188.372V12.2681H183.089V22.5793C183.089 25.0182 183.938 26.2745 186.044 26.2745C186.794 26.251 187.534 26.088 188.224 25.794L189 28.9348C187.855 29.3053 186.487 29.6744 185.009 29.6744C180.423 29.6715 178.833 26.8259 178.833 22.5402Z"
    fill="black"
  />
  <path
    d="M130.699 15.2767C130.699 11.224 127.225 7.75024 120.567 7.75024C117.104 7.75024 114.678 8.37117 113.286 8.87052L114.469 14.2794C121.87 12.0924 124.331 14.553 124.041 17.5925C124.041 17.5925 121.146 16.1451 117.962 16.1451C113.33 16.1451 110.725 19.3294 110.725 22.8755C110.725 27.4347 113.62 29.7506 117.962 29.7506C120.512 29.7506 122.751 28.6028 124.041 26.8688V29.1716H130.699V15.2767ZM120.278 24.6847C118.541 24.6847 117.673 23.8163 117.673 22.3689C117.673 20.9215 118.83 20.053 120.278 20.053C122.015 20.053 122.883 20.3425 123.989 20.6624C123.989 22.6583 122.883 24.6847 120.278 24.6847Z"
    fill="black"
  />
  <path
    d="M20.3865 21.0819C19.1287 22.0762 17.512 22.6841 15.0528 22.5148C10.8554 22.2253 8.39485 19.1149 8.39485 15.2778C8.39485 11.4408 11.0002 8.18564 15.0528 8.0409C17.5134 7.95261 19.0592 8.46498 20.3127 9.41736L24.3263 3.68426C21.8006 1.68541 18.392 0.803955 14.4739 0.803955C6.07903 0.803955 0 6.88299 0 15.2778C0 23.6727 6.07903 29.7517 14.4739 29.7517C18.4629 29.7517 21.9294 28.8355 24.4681 26.7571L20.3865 21.0819Z"
    fill="black"
  />
  <path
    d="M36.4874 7.75024C30.1073 7.75024 25.1978 12.3703 25.1978 18.7504C25.1978 25.1305 30.1073 29.7506 36.4874 29.7506C42.8675 29.7506 47.7669 25.1305 47.777 18.7504C47.7871 12.3703 42.8675 7.75024 36.4874 7.75024ZM36.4744 23.382C34.0138 23.382 32.2769 21.5004 32.2769 18.7504C32.2769 16.1451 34.0138 14.1188 36.4744 14.1188C38.9349 14.1188 40.6718 16.1451 40.6718 18.7504C40.6718 21.3557 38.9349 23.382 36.4744 23.382Z"
    fill="black"
  />
  <path
    d="M62.9613 7.75024C60.5312 7.75024 58.2458 9.08329 56.7376 10.8781V8.3292H50.0796V29.1716H56.7376V17.0135C56.7376 16.2074 57.0578 15.4343 57.6278 14.8643C58.1978 14.2942 58.971 13.974 59.7771 13.974C60.5832 13.974 61.3563 14.2942 61.9264 14.8643C62.4964 15.4343 62.8166 16.2074 62.8166 17.0135V29.1716H69.4746V14.4082C69.4746 10.645 67.014 7.75024 62.9613 7.75024Z"
    fill="black"
  />
  <path
    d="M104.501 23.3827C102.041 23.3827 100.738 22.2248 100.738 20.2419V14.1194H106.817L107.107 8.32987H100.738V2.68506H94.0801V23.6722C94.1915 27.2472 97.0733 29.7512 102.252 29.7512C105.263 29.7512 107.827 28.7221 109.2 28.0361L107.367 22.6967C106.469 23.1203 105.494 23.3539 104.501 23.3827Z"
    fill="black"
  />
  <path d="M110.246 27.3091L110.233 27.4712L110.291 27.435L110.246 27.3091Z" fill="black" />
  <path
    d="M71.7905 26.8558L74.1063 22.8031C76.5278 24.3807 79.8959 25.2636 82.0236 24.9655C82.8225 24.8526 83.2249 24.2505 83.2249 23.8163C83.2249 23.382 82.8674 22.6352 80.8483 22.0968C75.7824 20.7941 72.6676 19.3655 72.6676 15.019V14.9423C72.6676 10.3266 76.1891 7.75024 81.3997 7.75024C84.7012 7.75024 87.9665 8.6346 90.388 10.1732L88.0013 14.1188C85.8736 12.8885 83.0802 11.9477 81.3621 12.2458C81.0501 12.3002 80.7651 12.4569 80.552 12.6912C80.3389 12.9255 80.2099 13.2241 80.1854 13.5398C80.1854 14.1188 80.6283 14.828 82.6459 15.3664C87.7118 16.6691 90.7513 18.1353 90.7513 22.4427V22.5194C90.7513 27.096 87.3413 29.7563 81.9107 29.7563C78.0259 29.7505 74.652 28.8561 71.7905 26.8558Z"
    fill="black"
  />
</svg>
