<svg width="281" height="39" viewBox="0 0 281 39" fill="none" xmlns="http://www.w3.org/2000/svg">
  <path
    d="M142.176 2.18896H146.607L149.177 16.4887C149.661 19.3924 150.144 22.3355 150.629 25.2757H150.775C151.37 22.3355 152.003 19.3924 152.636 16.4887L156.173 2.18896H160.01L163.547 16.4887C164.18 19.3559 164.775 22.2976 165.408 25.2757H165.595C166.042 22.2976 166.525 19.3559 166.973 16.4887L169.579 2.18896H173.713L168.314 29.6313H162.988L159.305 14.4021C158.82 12.2426 158.41 10.1939 158.038 8.10876H157.892C157.482 10.1939 157.036 12.2426 156.589 14.4021L152.978 29.6313H147.764L142.176 2.18896Z"
    fill="black"
  />
  <path
    d="M177.32 2.78848C177.32 1.26367 178.398 0.259766 179.959 0.259766C181.521 0.259766 182.637 1.26367 182.637 2.78848C182.637 4.34978 181.522 5.35368 179.959 5.35368C178.397 5.35368 177.32 4.34978 177.32 2.78848ZM177.841 9.18251H182.116V29.6311H177.841V9.18251Z"
    fill="black"
  />
  <path
    d="M187.134 19.4068C187.134 12.7895 191.336 8.66301 195.909 8.66301C198.251 8.66301 199.738 9.55456 201.412 10.967L201.225 7.58762V0H205.5V29.6311H202.006L201.671 27.3256H201.525C200.001 28.8884 197.878 30.1141 195.576 30.1141C190.443 30.1141 187.134 26.2108 187.134 19.4068ZM201.225 24.0921V14.0911C199.7 12.7151 198.251 12.2321 196.726 12.2321C193.863 12.2321 191.558 14.9461 191.558 19.3703C191.558 24.0177 193.38 26.5829 196.577 26.5829C198.288 26.5829 199.738 25.8023 201.225 24.0921Z"
    fill="black"
  />
  <path
    d="M210.444 33.4236C210.444 31.7135 211.522 30.1142 213.419 28.963V28.7762C212.377 28.1444 211.56 27.0661 211.56 25.3939C211.56 23.7888 212.713 22.4186 213.864 21.6001V21.4541C213.025 20.8105 212.344 19.9833 211.873 19.0359C211.403 18.0884 211.155 17.0459 211.15 15.9881C211.15 11.3787 214.832 8.66463 219.07 8.66463C220.085 8.66024 221.091 8.83612 222.044 9.18409H229.293V12.3811H225.39C226.171 13.1982 226.728 14.5698 226.728 16.1355C226.728 20.5976 223.346 23.1628 219.07 23.1628C218.083 23.1533 217.108 22.9381 216.208 22.531C215.538 23.1249 215.091 23.6823 215.091 24.6862C215.091 25.9133 215.91 26.694 218.512 26.694H222.267C227.1 26.694 229.629 28.1809 229.629 31.677C229.629 35.6167 225.464 38.8152 218.922 38.8152C214.013 38.8137 210.444 36.9927 210.444 33.4236ZM225.502 32.3453C225.502 30.6352 224.163 30.1142 221.672 30.1142H218.582C217.657 30.1148 216.735 30.0169 215.831 29.8224C214.604 30.7139 214.08 31.7558 214.08 32.7962C214.08 34.804 216.162 35.9932 219.546 35.9932C223.122 35.9888 225.502 34.2422 225.502 32.3453ZM222.936 15.9867C222.936 13.2726 221.226 11.6749 219.07 11.6749C216.915 11.6749 215.204 13.2362 215.204 15.9867C215.204 18.7372 216.955 20.4108 219.07 20.4108C221.186 20.4108 222.936 18.7386 222.936 15.9867Z"
    fill="black"
  />
  <path
    d="M231.337 19.4061C231.337 12.7889 235.91 8.66235 240.669 8.66235C246.097 8.66235 249.034 12.5656 249.034 18.3278C249.033 19.063 248.958 19.7962 248.811 20.5165H235.532C235.868 24.4198 238.321 26.7617 241.854 26.7617C243.675 26.7617 245.236 26.2043 246.724 25.2384L248.211 27.9524C246.172 29.3423 243.764 30.0927 241.296 30.1076C235.762 30.1134 231.337 26.1737 231.337 19.4061ZM245.316 17.5472C245.316 14.0452 243.711 12.0024 240.743 12.0024C238.178 12.0024 235.91 13.9722 235.502 17.5472H245.316Z"
    fill="black"
  />
  <path
    d="M254.054 22.9395V12.6043H251.079V9.40582L254.277 9.18257L254.76 3.53271H258.329V9.18257H263.645V12.6043H258.329V22.976C258.329 25.4303 259.184 26.6939 261.303 26.6939C262.056 26.6695 262.798 26.5057 263.492 26.2109L264.274 29.3715C263.121 29.7435 261.745 30.1142 260.258 30.1142C255.652 30.1142 254.054 27.2513 254.054 22.9395Z"
    fill="black"
  />
  <path
    d="M265.542 27.2856L267.549 24.5336C269.37 25.9475 271.155 26.877 273.349 26.877C275.802 26.877 276.955 25.6863 276.955 24.125C276.955 22.2661 274.65 21.4489 272.456 20.5939C269.706 19.552 266.694 18.1016 266.694 14.6449C266.694 11.2246 269.445 8.66235 273.981 8.66235C276.695 8.66235 278.963 9.77715 280.599 11.0787L278.591 13.7154C277.178 12.6736 275.728 11.9309 274.056 11.9309C271.787 11.9309 270.746 13.0457 270.746 14.4596C270.746 16.2106 272.754 16.8759 274.978 17.6931C277.841 18.7714 281 20.035 281 23.9018C281 27.322 278.286 30.1105 273.23 30.1105C270.412 30.1134 267.549 28.9242 265.542 27.2856Z"
    fill="black"
  />
  <path
    d="M131.762 15.613C131.762 11.5274 128.26 8.02539 121.548 8.02539C118.056 8.02539 115.61 8.65137 114.207 9.15478L115.4 14.6076C122.861 12.4029 125.342 14.8834 125.05 17.9477C125.05 17.9477 122.131 16.4885 118.921 16.4885C114.252 16.4885 111.625 19.6986 111.625 23.2736C111.625 27.8699 114.544 30.2046 118.921 30.2046C121.492 30.2046 123.75 29.0475 125.05 27.2994V29.6209H131.762V15.613ZM121.256 25.0975C119.505 25.0975 118.629 24.222 118.629 22.7629C118.629 21.3037 119.797 20.4282 121.256 20.4282C123.007 20.4282 123.882 20.7201 124.997 21.0425C124.997 23.0547 123.882 25.0975 121.256 25.0975Z"
    fill="black"
  />
  <path
    d="M20.5522 21.4638C19.2842 22.4706 17.6558 23.0791 15.1752 22.9083C10.9437 22.6165 8.46311 19.4808 8.46311 15.6126C8.46311 11.7443 11.0896 8.4627 15.1752 8.31678C17.6558 8.22777 19.2142 8.74431 20.4778 9.70444L24.524 3.92472C21.9778 1.90962 18.5386 1.021 14.5916 1.021C6.12846 1.021 0 7.14945 0 15.6126C0 24.0757 6.12846 30.2041 14.5916 30.2041C18.613 30.2041 22.1077 29.2805 24.667 27.1851L20.5522 21.4638Z"
    fill="black"
  />
  <path
    d="M36.7838 8.02539C30.3518 8.02539 25.4023 12.683 25.4023 19.115C25.4023 25.5469 30.3518 30.2046 36.7838 30.2046C43.2157 30.2046 48.155 25.5469 48.1652 19.115C48.1754 12.683 43.2157 8.02539 36.7838 8.02539ZM36.7706 23.7843C34.2901 23.7843 32.5391 21.8874 32.5391 19.115C32.5391 16.4885 34.2901 14.4457 36.7706 14.4457C39.2512 14.4457 41.0022 16.4885 41.0022 19.115C41.0022 21.7415 39.2512 23.7843 36.7706 23.7843Z"
    fill="black"
  />
  <path
    d="M63.4733 8.02539C61.0234 8.02539 58.7194 9.36927 57.1989 11.1786V8.60905H50.4868V29.6209H57.1989V17.364C57.1989 16.5513 57.5218 15.7719 58.0964 15.1973C58.6711 14.6226 59.4505 14.2998 60.2632 14.2998C61.0759 14.2998 61.8552 14.6226 62.4299 15.1973C63.0046 15.7719 63.3274 16.5513 63.3274 17.364V29.6209H70.0395V14.7375C70.0395 10.9437 67.559 8.02539 63.4733 8.02539Z"
    fill="black"
  />
  <path
    d="M105.351 23.7846C102.871 23.7846 101.557 22.6173 101.557 20.6183V14.446H107.686L107.978 8.60941H101.557V2.9187H94.8452V24.0765C94.9576 27.6806 97.8628 30.2049 103.084 30.2049C106.119 30.2049 108.704 29.1675 110.088 28.4758L108.24 23.093C107.335 23.5201 106.352 23.7556 105.351 23.7846Z"
    fill="black"
  />
  <path d="M111.143 27.7432L111.129 27.9066L111.188 27.8701L111.143 27.7432Z" fill="black" />
  <path
    d="M72.374 27.2863L74.7087 23.2006C77.1498 24.7911 80.5453 25.6812 82.6903 25.3806C83.4957 25.2668 83.9014 24.6598 83.9014 24.222C83.9014 23.7843 83.541 23.0314 81.5054 22.4886C76.3984 21.1753 73.2583 19.7351 73.2583 15.3533V15.2759C73.2583 10.6227 76.8084 8.02539 82.0614 8.02539C85.3897 8.02539 88.6816 8.91693 91.1227 10.468L88.7166 14.4457C86.5716 13.2054 83.7554 12.2569 82.0234 12.5575C81.7089 12.6123 81.4215 12.7703 81.2067 13.0065C80.9919 13.2427 80.8619 13.5437 80.8371 13.862C80.8371 14.4457 81.2836 15.1607 83.3177 15.7035C88.4247 17.0167 91.489 18.4948 91.489 22.8373V22.9088C91.489 27.5226 88.0512 30.2046 82.5764 30.2046C78.6601 30.2046 75.2588 29.3028 72.374 27.2863Z"
    fill="black"
  />
</svg>
