<svg width="189" height="30" fill="none" xmlns="http://www.w3.org/2000/svg">
  <path
    d="M143.437 1.959h4.285v12.896h.112L158.18 1.96h4.766l-8.424 10.531 9.829 16.702h-4.767l-7.686-13.34-4.176 5.136v8.202h-4.285V1.96zM167.048 2.513c0-1.516 1.071-2.513 2.623-2.513 1.551 0 2.66.997 2.66 2.513 0 1.551-1.109 2.55-2.66 2.55-1.552 0-2.623-.999-2.623-2.55zm.517 6.355h4.249v20.323h-4.249V8.868zM178.834 22.54V12.264h-2.957V9.08l3.184-.222.481-5.616h3.547v5.616h5.283v3.41h-5.283V22.58c0 2.44.85 3.695 2.956 3.695a6.052 6.052 0 002.18-.48l.775 3.14c-1.144.371-2.512.74-3.99.74-4.587-.002-6.176-2.848-6.176-7.134zM130.7 15.276c0-4.052-3.474-7.526-10.132-7.526-3.464 0-5.89.62-7.282 1.12l1.184 5.41c7.4-2.188 9.861.273 9.572 3.312 0 0-2.895-1.447-6.079-1.447-4.632 0-7.237 3.184-7.237 6.73 0 4.56 2.894 6.875 7.237 6.875 2.55 0 4.789-1.148 6.079-2.881v2.302h6.658V15.276zm-10.422 9.408c-1.737 0-2.605-.868-2.605-2.315 0-1.448 1.158-2.316 2.605-2.316 1.737 0 2.606.29 3.711.61 0 1.995-1.105 4.021-3.711 4.021zM20.387 21.083c-1.258.994-2.875 1.602-5.334 1.433-4.198-.29-6.658-3.4-6.658-7.237 0-3.838 2.605-7.093 6.658-7.237 2.46-.089 4.006.424 5.26 1.376l4.013-5.733c-2.525-1.999-5.934-2.88-9.852-2.88C6.079.805 0 6.884 0 15.279c0 8.394 6.079 14.474 14.474 14.474 3.989 0 7.455-.917 9.994-2.995l-4.081-5.675zM36.487 7.75c-6.38 0-11.29 4.62-11.29 11s4.91 11 11.29 11c6.38 0 11.28-4.62 11.29-11 .01-6.38-4.91-11-11.29-11zm-.013 15.632c-2.46 0-4.198-1.882-4.198-4.632 0-2.605 1.737-4.632 4.198-4.632 2.46 0 4.197 2.027 4.197 4.632 0 2.605-1.737 4.632-4.197 4.632zM62.962 7.75c-2.43 0-4.716 1.333-6.224 3.128V8.329H50.08v20.842h6.658V17.013a3.04 3.04 0 116.08 0v12.158h6.657V14.408c0-3.763-2.46-6.658-6.513-6.658zM104.501 23.383c-2.46 0-3.763-1.158-3.763-3.14V14.12h6.079l.29-5.79h-6.369V2.686H94.08v20.987c.112 3.575 2.993 6.079 8.172 6.079 3.011 0 5.575-1.03 6.948-1.715l-1.833-5.34a7.204 7.204 0 01-2.866.686zM110.246 27.309l-.013.162.058-.037-.045-.125zM71.79 26.855l2.316-4.052c2.421 1.578 5.79 2.46 7.917 2.162.799-.113 1.201-.715 1.201-1.149 0-.434-.357-1.181-2.376-1.72-5.066-1.302-8.18-2.73-8.18-7.077v-.077c0-4.616 3.52-7.192 8.731-7.192 3.302 0 6.567.884 8.989 2.423L88 14.118c-2.128-1.23-4.921-2.17-6.64-1.872a1.425 1.425 0 00-1.176 1.294c0 .579.443 1.288 2.46 1.826 5.066 1.303 8.106 2.769 8.106 7.076v.077c0 4.577-3.41 7.237-8.84 7.237-3.886-.006-7.26-.9-10.121-2.9z"
    fill="#FAFAFA"
  />
</svg>
