<svg width="281" height="39" fill="none" xmlns="http://www.w3.org/2000/svg">
  <path
    d="M142.176 2.19h4.431l2.57 14.3c.484 2.903.967 5.846 1.452 8.786h.146c.595-2.94 1.228-5.883 1.861-8.787l3.537-14.3h3.837l3.537 14.3c.633 2.867 1.228 5.81 1.861 8.787h.187c.447-2.978.93-5.92 1.378-8.787l2.606-14.3h4.134l-5.399 27.443h-5.326l-3.683-15.23c-.485-2.159-.895-4.208-1.267-6.293h-.146c-.41 2.085-.856 4.134-1.303 6.294l-3.611 15.229h-5.214l-5.588-27.443zM177.319 2.788c0-1.524 1.079-2.528 2.64-2.528 1.561 0 2.678 1.004 2.678 2.528 0 1.562-1.115 2.566-2.678 2.566s-2.64-1.004-2.64-2.566zm.521 6.395h4.276V29.63h-4.276V9.183zM187.134 19.407c0-6.617 4.202-10.744 8.775-10.744 2.342 0 3.829.892 5.503 2.304l-.187-3.38V0h4.275v29.631h-3.494l-.335-2.305h-.146c-1.524 1.562-3.647 2.788-5.949 2.788-5.133 0-8.442-3.903-8.442-10.707zm14.091 4.685v-10c-1.525-1.377-2.974-1.86-4.499-1.86-2.863 0-5.168 2.714-5.168 7.138 0 4.648 1.822 7.213 5.019 7.213 1.711 0 3.161-.78 4.648-2.49zM210.444 33.423c0-1.71 1.079-3.31 2.976-4.46v-.187c-1.042-.632-1.859-1.71-1.859-3.383 0-1.605 1.152-2.975 2.304-3.793v-.146a6.923 6.923 0 01-2.714-5.466c0-4.61 3.681-7.324 7.92-7.324a8.563 8.563 0 012.974.52h7.249v3.197h-3.904c.781.817 1.339 2.188 1.339 3.754 0 4.462-3.383 7.027-7.658 7.027a7.11 7.11 0 01-2.863-.631c-.67.593-1.116 1.15-1.116 2.155 0 1.227.818 2.008 3.42 2.008h3.756c4.833 0 7.361 1.486 7.361 4.983 0 3.94-4.164 7.138-10.707 7.138-4.909-.002-8.478-1.823-8.478-5.392zm15.059-1.078c0-1.71-1.34-2.231-3.83-2.231h-3.091c-.925 0-1.847-.098-2.75-.292-1.228.892-1.751 1.933-1.751 2.974 0 2.008 2.082 3.197 5.466 3.197 3.576-.005 5.956-1.751 5.956-3.648zm-2.567-16.359c0-2.714-1.71-4.312-3.865-4.312-2.155 0-3.867 1.562-3.867 4.312s1.751 4.424 3.867 4.424 3.865-1.672 3.865-4.424zM231.338 19.406c0-6.617 4.573-10.744 9.331-10.744 5.428 0 8.366 3.903 8.366 9.666a11.097 11.097 0 01-.224 2.188h-13.278c.336 3.904 2.788 6.246 6.321 6.246 1.821 0 3.382-.558 4.871-1.524l1.487 2.714a12.413 12.413 0 01-6.915 2.155c-5.535.006-9.959-3.933-9.959-10.701zm13.979-1.86c0-3.501-1.605-5.544-4.573-5.544-2.566 0-4.833 1.97-5.242 5.545h9.815zM254.053 22.94V12.605h-2.975V9.406l3.199-.223.483-5.65h3.569v5.65h5.315v3.422h-5.315v10.372c0 2.454.855 3.717 2.973 3.717a6.095 6.095 0 002.189-.483l.782 3.16c-1.152.373-2.528.744-4.015.744-4.607 0-6.205-2.863-6.205-7.175zM265.542 27.285l2.008-2.752c1.821 1.414 3.605 2.344 5.8 2.344 2.453 0 3.606-1.19 3.606-2.752 0-1.86-2.306-2.676-4.499-3.531-2.751-1.042-5.762-2.493-5.762-5.95 0-3.42 2.75-5.982 7.287-5.982 2.714 0 4.981 1.115 6.617 2.416l-2.008 2.637c-1.412-1.042-2.863-1.784-4.535-1.784-2.269 0-3.309 1.114-3.309 2.528 0 1.751 2.008 2.417 4.231 3.234C277.841 18.77 281 20.035 281 23.9c0 3.42-2.714 6.21-7.77 6.21-2.817.002-5.68-1.187-7.688-2.826zM131.761 15.613c0-4.086-3.502-7.588-10.214-7.588-3.491 0-5.937.626-7.341 1.13l1.194 5.453c7.461-2.205 9.941.275 9.649 3.34 0 0-2.918-1.46-6.128-1.46-4.67 0-7.296 3.21-7.296 6.786 0 4.596 2.918 6.93 7.296 6.93 2.571 0 4.828-1.157 6.128-2.905v2.322h6.712V15.613zm-10.506 9.485c-1.751 0-2.626-.876-2.626-2.335 0-1.46 1.167-2.335 2.626-2.335 1.751 0 2.627.292 3.742.614 0 2.013-1.115 4.055-3.742 4.055zM20.552 21.464c-1.268 1.007-2.896 1.616-5.377 1.445-4.231-.292-6.712-3.428-6.712-7.296 0-3.868 2.627-7.15 6.712-7.296 2.48-.089 4.04.428 5.303 1.388l4.046-5.78c-2.546-2.015-5.985-2.904-9.932-2.904C6.128 1.021 0 7.15 0 15.613c0 8.463 6.128 14.592 14.592 14.592 4.021 0 7.516-.924 10.075-3.02l-4.115-5.72zM36.784 8.025c-6.432 0-11.382 4.658-11.382 11.09 0 6.432 4.95 11.09 11.382 11.09 6.432 0 11.371-4.658 11.381-11.09.01-6.432-4.95-11.09-11.381-11.09zm-.013 15.76c-2.48 0-4.232-1.898-4.232-4.67 0-2.627 1.751-4.67 4.232-4.67 2.48 0 4.231 2.043 4.231 4.67s-1.75 4.67-4.231 4.67zM63.473 8.025c-2.45 0-4.754 1.344-6.275 3.154v-2.57h-6.712v21.012h6.712V17.364a3.064 3.064 0 016.129 0v12.257h6.712V14.738c0-3.794-2.48-6.713-6.566-6.713zM105.352 23.784c-2.481 0-3.794-1.167-3.794-3.166v-6.173h6.128l.292-5.836h-6.42V2.918h-6.712v21.158c.112 3.604 3.017 6.128 8.238 6.128 3.035 0 5.621-1.037 7.004-1.729l-1.847-5.383a7.264 7.264 0 01-2.889.692zM111.143 27.742l-.013.164.058-.037-.045-.127zM72.374 27.286l2.335-4.085c2.44 1.59 5.836 2.48 7.981 2.18.806-.114 1.211-.721 1.211-1.159 0-.438-.36-1.19-2.396-1.733-5.107-1.314-8.247-2.754-8.247-7.136v-.077c0-4.653 3.55-7.25 8.803-7.25 3.329 0 6.62.89 9.062 2.442l-2.406 3.978c-2.145-1.24-4.962-2.19-6.694-1.889a1.438 1.438 0 00-1.186 1.305c0 .584.447 1.299 2.48 1.841 5.108 1.314 8.172 2.792 8.172 7.134v.072c0 4.614-3.438 7.296-8.913 7.296-3.916 0-7.317-.902-10.202-2.919z"
    fill="#FAFAFA"
  />
</svg>
